<?xml version="1.0" encoding="UTF-8" standalone="no"?>
<!-- Created with Inkscape (http://www.inkscape.org/) -->

<svg
   width="464.84232mm"
   height="110.03175mm"
   viewBox="0 0 464.84231 110.03173"
   version="1.1"
   id="svg1"
   xml:space="preserve"
   xmlns="http://www.w3.org/2000/svg"
   xmlns:svg="http://www.w3.org/2000/svg"><defs
     id="defs1" /><g
     id="layer1"
     transform="translate(138.46385,-224.1528)"><path
       style="fill:#202020;fill-opacity:1;stroke:#202020;stroke-opacity:1"
       d="m -136.91759,332.64469 -1.03897,-1.03897 -0.003,-5.65353 c -0.005,-8.66345 -0.006,-86.64388 -10e-4,-93.16834 l 0.004,-5.75858 0.90564,-0.9883 0.90565,-0.9883 21.91467,-0.0808 c 26.36861,-0.0972 28.31878,0.0324 33.02716,2.19524 3.83359,1.76098 6.54319,4.37391 8.23348,7.93972 2.02664,4.27536 2.30403,7.18502 2.14462,22.49563 -0.10379,9.96887 -0.19744,12.22225 -0.57705,13.88458 -0.54537,2.38817 -1.74274,5.30577 -2.76318,6.73295 l -0.74677,1.04441 0.87873,1.37368 c 1.10228,1.72314 2.09758,4.19409 2.65512,6.59166 0.35233,1.5151 0.45311,4.01736 0.55387,13.75229 0.16167,15.61886 -0.11011,18.30237 -2.30861,22.79437 -2.33936,4.7798 -6.65405,7.91055 -12.80777,9.29335 -1.62347,0.36482 -5.12301,0.43504 -25.90732,0.51985 l -24.0303,0.0981 z m 44.866237,-13.01725 c 3.109813,-0.44307 5.000433,-1.20686 6.595193,-2.66437 2.31154,-2.11262 2.3356,-2.2402 2.46479,-13.06857 0.11577,-9.70308 -0.0461,-11.71727 -1.12437,-13.98952 -0.65648,-1.38344 -2.20712,-2.80242 -3.97895,-3.64113 -2.70376,-1.27984 -4.312993,-1.34703 -18.35973,-0.76655 -6.92144,0.28602 -13.3095,0.56833 -14.1957,0.62736 -1.77697,0.11835 -2.77811,0.62665 -3.24275,1.64642 -0.21893,0.48051 -0.30536,4.78903 -0.30536,15.22297 0,12.68582 0.0531,14.65548 0.414,15.35336 0.79296,1.53341 0.79068,1.53319 15.99017,1.53879 7.852127,0.003 14.695757,-0.1096 15.742707,-0.25876 z m 1.075883,-46.31699 c 3.79264,-0.69878 6.33578,-2.74261 7.32429,-5.88622 0.57414,-1.82588 0.59566,-2.25752 0.59566,-11.94848 0,-10.01026 -0.003,-10.06022 -0.62694,-11.44101 -1.06863,-2.36391 -3.19981,-3.90602 -6.57731,-4.75932 -1.583923,-0.40017 -3.527253,-0.45355 -16.76562,-0.46053 -16.21976,-0.009 -15.85531,-0.04 -16.73116,1.44273 -0.39813,0.67398 -0.44168,2.18613 -0.44168,15.33824 0,15.9384 -0.0203,15.7187 1.52583,16.51546 0.54446,0.28057 3.53418,0.48068 12.10021,0.8099 6.2574,0.2405 11.674737,0.4737 12.038547,0.51824 1.69361,0.20731 6.14518,0.13133 7.558173,-0.12901 z m 26.84254,59.87767 c -0.73133,-0.5922 -0.74219,-0.97579 -0.14995,-5.29832 0.33021,-2.41013 0.63062,-3.7043 0.95194,-4.10104 l 0.46947,-0.57967 109.097771,0.0955 c 101.387429,0.0887 109.130499,0.12663 109.560759,0.53647 0.33446,0.31859 0.60872,1.46718 0.98805,4.13786 0.64781,4.56101 0.648,4.40006 -0.006,5.10218 l -0.53947,0.57906 H 46.34474 c -105.06486,0 -109.92038,-0.0207 -110.47767,-0.47201 z m 228.97083,-0.0202 c -0.44821,-0.27702 -1.01376,-0.92267 -1.25678,-1.43479 -0.40802,-0.85984 -0.44184,-4.8629 -0.44184,-52.29494 0,-55.73508 -0.0919,-52.3125 1.44255,-53.72808 l 0.71699,-0.66146 h 23.59263 c 21.79192,0 23.77387,0.0368 25.96736,0.48273 8.61003,1.7502 13.449,6.47126 15.12513,14.75654 0.40599,2.00686 0.45999,5.54497 0.55484,36.35448 0.10901,35.41019 0.0137,39.73019 -0.95694,43.39167 -1.79406,6.76735 -6.39603,11.10687 -13.65818,12.87925 -2.34764,0.57296 -2.71922,0.58241 -26.32605,0.66971 -23.16239,0.0857 -23.97142,0.0721 -24.75971,-0.41511 z m 45.50477,-12.06249 c 2.54732,-0.48738 4.03347,-1.14719 5.43409,-2.41257 1.61837,-1.46209 2.09829,-2.60304 2.41215,-5.73456 0.1755,-1.75106 0.24214,-14.39982 0.18786,-35.65444 -0.0788,-30.84548 -0.11431,-33.03057 -0.55873,-34.35482 -0.63346,-1.88756 -2.15673,-3.49381 -4.17025,-4.39742 -3.01062,-1.35108 -4.34903,-1.44516 -20.7029,-1.4552 -13.16223,-0.008 -15.15113,0.0429 -15.9207,0.40809 -1.83668,0.87156 -1.71408,-2.11247 -1.71408,41.71808 0,28.72491 0.0818,39.77664 0.29915,40.40003 0.16454,0.47198 0.67055,1.08461 1.12448,1.36141 0.78615,0.47938 1.55593,0.50332 16.21404,0.50426 12.35162,7.9e-4 15.78464,-0.0748 17.39489,-0.38286 z m 21.49756,11.4302 c 1.94516,-2.11332 3.87939,-5.39559 4.60142,-7.80835 0.18559,-0.62019 0.48089,-1.24668 0.65622,-1.39219 0.2104,-0.17461 15.03567,-0.24101 43.60401,-0.19529 40.28582,0.0645 43.31631,0.10035 43.73379,0.51786 0.30329,0.3033 0.60478,1.50303 0.93088,3.70417 0.65982,4.45379 0.67121,5.13198 0.0969,5.76661 -0.47848,0.52871 -0.74317,0.53167 -47.56969,0.53167 H 230.80522 Z M -61.91539,318.37639 c -1.06683,-0.71234 -1.08947,-0.5181 5.83698,-50.06834 0.35598,-2.54662 1.42574,-10.40474 2.37724,-17.4625 0.95149,-7.05777 1.90228,-13.96339 2.11286,-15.34584 0.21058,-1.38245 0.59212,-4.0938 0.84788,-6.02522 0.34143,-2.5785 0.59454,-3.65072 0.95245,-4.0349 0.47739,-0.51241 0.90483,-0.52321 20.707464,-0.52321 19.7662537,0 20.2308917,0.0117 20.7048737,0.52044 0.522734,0.56109 0.682879,1.60573 4.191022,27.33841 0.968005,7.10044 1.711948,12.95796 1.653206,13.0167 -0.196076,0.19608 -11.3873527,1.22994 -11.7611297,1.08651 -0.202499,-0.0777 -0.36818,-0.49614 -0.36818,-0.92986 0,-0.43371 -0.777162,-6.42034 -1.727026,-13.30361 -1.950267,-14.13278 -2.078624,-14.62707 -3.957742,-15.24063 -1.558759,-0.50897 -17.22736,-0.3436 -18.030767,0.19029 -0.806012,0.53563 -1.318473,1.5249 -1.655971,3.19675 -0.365008,1.80812 -3.92916,27.78555 -4.0113,29.23646 -0.10288,1.81736 -0.0301,1.99291 1.00489,2.42537 1.16357,0.48617 0.49805,0.5318 16.339374,-1.12027 36.783847,-3.83614 41.215999,-4.20659 55.165626,-4.61089 11.28547,-0.32708 24.12088,-0.32601 35.656124,0.003 12.897928,0.36785 22.098582,1.10725 47.555336,3.82171 16.97211,1.80975 19.4871,2.05291 21.60082,2.08847 2.55817,0.043 3.40232,-0.36603 3.40232,-1.64876 0,-1.62368 -4.02103,-29.93663 -4.43577,-31.23326 -0.8237,-2.57514 -0.61403,-2.52228 -10.33369,-2.60512 -9.35343,-0.0797 -9.70267,-0.0236 -10.71053,1.72247 -0.48258,0.83602 -1.34262,6.35908 -3.52828,22.65801 l -0.74071,5.52363 -1.72812,-0.15438 c -3.17223,-0.28339 -10.194102,-1.01527 -10.247334,-1.06807 -0.05346,-0.053 2.331927,-17.66044 4.019397,-29.66856 0.511241,-3.63802 1.008276,-7.38371 1.104517,-8.32375 0.13053,-1.27483 0.32898,-1.86315 0.78093,-2.3151 l 0.60594,-0.60594 h 20.09105 c 18.74791,0 20.12792,0.031 20.64241,0.46302 0.47113,0.39564 0.65122,1.21381 1.23758,5.62239 0.37742,2.83766 0.75671,5.33797 0.84287,5.55626 0.0862,0.21828 0.13908,0.48221 0.11759,0.58651 -0.0559,0.27148 3.3274,25.36487 4.57634,33.94161 0.42857,2.94304 1.61014,11.53271 3.58495,26.06146 3.00555,22.11199 2.77362,19.99987 2.2791,20.7546 l -0.44336,0.67665 h -5.10271 c -3.86921,0 -5.22093,-0.0864 -5.59178,-0.35762 -0.41783,-0.30553 -0.78527,-2.51246 -2.52215,-15.14857 -1.11819,-8.13501 -2.17703,-15.22714 -2.35298,-15.76028 -0.60317,-1.82763 -1.70069,-2.15478 -11.40569,-3.39984 -3.56526,-0.45739 -8.2087,-1.06062 -10.31875,-1.34051 -37.323933,-4.95099 -44.70374,-5.52638 -70.908336,-5.52857 -21.06151,-0.002 -30.485952,0.48651 -46.16979303,2.392 -11.71064597,1.42277 -42.96980097,5.56421 -43.82407097,5.80613 -1.31729,0.37304 -2.25454,1.16659 -2.5827,2.18671 -0.22147,0.68847 -1.79225,11.75796 -4.00503,28.22405 -0.40476,3.01195 -0.22548,2.92723 -6.18389,2.92245 -2.77873,-0.002 -5.18323,-0.0915 -5.34335,-0.19844 z m 54.8640187,-0.26053 c -0.298583,-0.33707 -1.036083,-5.02087 -2.711069,-17.21779 -1.2654997,-9.21512 -2.2501277,-16.80554 -2.1880627,-16.86761 0.15027,-0.15027 10.0260067,-1.43491 11.03094097,-1.43491 0.681312,0 0.806661,0.11542 0.933841,0.85989 0.08079,0.47294 1.16323203,8.2825 2.40541903,17.35457 2.339881,17.08885 2.320076,16.82291 1.30812,17.56638 -0.145521,0.10691 -2.538083,0.19621 -5.3168063,0.19844 -4.482144,0.004 -5.098503,-0.0482 -5.462383,-0.45897 z m 20.1718983,-0.0661 c -0.518942,-0.51894 -0.529167,-0.88194 -0.529167,-18.78541 0,-10.04094 0.0893,-18.2588 0.198437,-18.26191 0.109141,-0.003 2.749111,-0.176 5.866599,-0.3842 3.117489,-0.20821 5.76663,-0.3177 5.88698,-0.24332 0.12035,0.0744 0.218818,8.35135 0.218818,18.39327 0,18.29976 -0.0335,19.03 -0.899505,19.60825 -0.160116,0.10691 -2.523542,0.19621 -5.252058,0.19844 -4.611147,0.004 -4.998249,-0.0333 -5.490104,-0.52512 z m 55.206634,0.0453 c -0.398759,-0.44063 -0.437882,-2.1545 -0.437882,-19.1823 0,-10.28414 0.0893,-18.69589 0.198437,-18.69278 1.451062,0.0413 11.529709,0.78638 11.600909,0.85758 0.05326,0.0533 0.103821,8.28992 0.112349,18.30367 0.01427,16.75487 -0.02025,18.24633 -0.432853,18.70225 -0.408507,0.4514 -0.899627,0.49543 -5.525718,0.49543 -4.582846,0 -5.120008,-0.0471 -5.515242,-0.48385 z m 20.108333,0 c -0.240835,-0.26612 -0.437882,-0.83005 -0.437882,-1.25318 0,-0.64482 3.787845,-28.9385 4.425363,-33.05568 0.204015,-1.31755 0.208599,-1.32259 1.130887,-1.24349 0.775419,0.0665 5.270853,0.63318 9.988958,1.25917 0.99129,0.13152 1.10972,0.21832 0.99372,0.72828 -0.0724,0.31843 -1.09019,7.66318 -2.26167,16.32167 -1.17149,8.65849 -2.18439,16.00227 -2.25089,16.31952 -0.280313,1.33722 -0.582716,1.40756 -6.051135,1.40756 -4.604264,0 -5.141991,-0.047 -5.537351,-0.48385 z m 150.639206,-0.0453 c -0.52507,-0.52506 -0.52917,-0.88194 -0.52917,-46.02505 0,-33.0626 0.0811,-45.67392 0.29684,-46.14737 0.16326,-0.35831 0.55021,-0.71948 0.85989,-0.80258 0.30969,-0.0831 2.6223,-0.15273 5.13915,-0.15472 4.50803,-0.004 4.58575,0.006 5.22552,0.64582 l 0.64943,0.64943 v 45.40546 c 0,45.88845 -0.005,46.15854 -0.8995,46.75569 -0.16012,0.10691 -2.52354,0.19621 -5.25206,0.19844 -4.61114,0.004 -4.99825,-0.0333 -5.4901,-0.52512 z m 20.60962,0.36213 c -0.23361,-0.0669 -0.56344,-0.38408 -0.73295,-0.70489 -0.23187,-0.43884 -0.29049,-11.76666 -0.2367,-45.74353 l 0.0715,-45.16025 0.77871,-0.81278 c 0.42829,-0.44703 1.20219,-0.93042 1.71979,-1.07421 1.28411,-0.35673 38.66777,-0.34864 42.48066,0.009 4.03986,0.37913 6.99706,1.13136 9.80416,2.49389 6.06702,2.94486 9.87495,7.61384 11.6613,14.29816 0.44832,1.67754 0.4946,2.94922 0.49115,13.49375 l -0.004,11.64167 -0.72704,2.33031 c -0.39987,1.28167 -1.03746,2.94854 -1.41687,3.70416 -1.59319,3.17302 -4.54966,6.50975 -7.32176,8.26351 -1.45001,0.91735 -1.81092,1.58853 -1.50624,2.80121 0.49419,1.967 1.97264,7.30741 5.40044,19.50721 1.97709,7.03664 3.59093,13.0493 3.5863,13.36146 -0.005,0.31215 -0.18811,0.80568 -0.40774,1.09672 -0.36832,0.48808 -0.76283,0.53568 -5.08084,0.6131 -5.20493,0.0933 -6.27413,-0.0189 -6.5391,-0.68644 -0.0995,-0.2507 -2.07653,-7.24239 -4.39337,-15.53708 -2.31683,-8.29468 -4.33077,-15.35532 -4.47541,-15.69031 -0.57706,-1.33648 -1.02527,-1.37531 -15.87685,-1.37531 -11.70797,0 -13.89493,0.0594 -14.54452,0.39536 -1.66163,0.85927 -1.59042,0.11747 -1.59042,16.56753 0,14.36212 -0.0213,15.01936 -0.50526,15.61769 -0.4952,0.6122 -0.6018,0.62549 -5.35781,0.66805 -2.66891,0.0239 -5.04369,-0.0113 -5.27731,-0.0782 z m 45.36291,-45.72203 c 4.30084,-0.82288 6.96465,-2.96454 8.13634,-6.54146 0.62022,-1.89341 0.63592,-2.16022 0.63592,-10.80489 0,-9.84307 -0.15883,-11.22411 -1.5595,-13.56012 -1.68813,-2.81543 -4.80841,-4.34339 -9.62896,-4.71517 -4.17819,-0.32223 -28.29552,-0.29912 -29.47422,0.0283 -0.53635,0.14896 -1.28049,0.63369 -1.65365,1.07716 l -0.67846,0.80631 v 16.00438 c 0,10.80372 0.0915,16.17529 0.28147,16.53032 0.15481,0.28926 0.66082,0.75724 1.12448,1.03995 0.80849,0.49297 1.45689,0.51406 15.83484,0.51501 11.94852,7.8e-4 15.39577,-0.0763 16.98174,-0.37975 z M 12.59136,245.30712 c 0,-18.97963 0.0097,-19.34206 0.529167,-19.86158 0.489718,-0.48971 0.879266,-0.52889 5.225521,-0.52555 2.582995,0.002 4.949731,0.0716 5.259414,0.15472 0.309683,0.0831 0.696636,0.44427 0.859896,0.80258 0.210408,0.4618 0.296836,6.07282 0.296836,19.2711 v 18.61962 l -1.653646,0.14744 c -0.909505,0.0811 -3.439584,0.21757 -5.622396,0.30328 -2.182813,0.0857 -4.17711,0.21545 -4.431771,0.28832 -0.437957,0.12532 -0.463021,-0.91402 -0.463021,-19.19993 z m 62.57396,18.98545 c -2.182813,-0.12703 -4.712891,-0.29702 -5.622396,-0.37776 l -1.653645,-0.1468 v -18.89665 c 0,-18.54387 0.0099,-18.90653 0.529167,-19.42582 0.489717,-0.48971 0.879265,-0.52889 5.22552,-0.52555 5.05084,0.004 5.764698,0.0898 6.007842,0.72347 0.08661,0.2257 0.158938,9.05435 0.160735,19.61924 0.0026,15.4839 -0.06283,19.21392 -0.337602,19.23486 -0.187479,0.0143 -2.126809,-0.078 -4.309621,-0.20499 z"
       id="path1" /></g></svg>
